<?xml version="1.0" encoding="UTF-8" standalone="no"?>
<!-- Created with Inkscape (http://www.inkscape.org/) -->

<svg
   xmlns:dc="http://purl.org/dc/elements/1.1/"
   xmlns:cc="http://creativecommons.org/ns#"
   xmlns:rdf="http://www.w3.org/1999/02/22-rdf-syntax-ns#"
   xmlns:svg="http://www.w3.org/2000/svg"
   xmlns="http://www.w3.org/2000/svg"
   xmlns:sodipodi="http://sodipodi.sourceforge.net/DTD/sodipodi-0.dtd"
   xmlns:inkscape="http://www.inkscape.org/namespaces/inkscape"
   width="183.9855mm"
   height="204.57086mm"
   viewBox="0 0 183.9855 204.57086"
   version="1.1"
   id="svg60"
   inkscape:version="0.92.4 5da689c313, 2019-01-14"
   sodipodi:docname="Final Logo.svg">
  <defs
     id="defs54" />
  <sodipodi:namedview
     id="base"
     pagecolor="#ffffff"
     bordercolor="#666666"
     borderopacity="1.0"
     inkscape:pageopacity="0.0"
     inkscape:pageshadow="2"
     inkscape:zoom="0.35"
     inkscape:cx="-556.5966"
     inkscape:cy="409.44773"
     inkscape:document-units="mm"
     inkscape:current-layer="layer1"
     showgrid="false"
     inkscape:window-width="2560"
     inkscape:window-height="1376"
     inkscape:window-x="0"
     inkscape:window-y="27"
     inkscape:window-maximized="1" />
  <metadata
     id="metadata57">
    <rdf:RDF>
      <cc:Work
         rdf:about="">
        <dc:format>image/svg+xml</dc:format>
        <dc:type
           rdf:resource="http://purl.org/dc/dcmitype/StillImage" />
        <dc:title />
      </cc:Work>
    </rdf:RDF>
  </metadata>
  <g
     inkscape:label="Layer 1"
     inkscape:groupmode="layer"
     id="layer1"
     transform="translate(-12.328682,-52.595524)">
    <g
       id="g22"
       transform="matrix(0.13667333,0,0,-0.13667333,17.940396,133.93704)">
      <path
         d="m 0,0 c -32.32,59.938 -45.028,123.46 -39.993,178.854 0.667,7.342 6.314,13.206 13.616,14.234 102.336,14.413 208.178,-35.583 260.694,-133.197 27.244,-50.275 36.144,-105.828 29.196,-158.303 -1.41,-10.65 -15.868,-12.753 -20.417,-3.021 C 202.574,-14.739 129.158,60.402 67.855,79.98 c 58.9,-18.924 127.539,-118.496 160.335,-212.079 4.197,-11.973 -5.134,-24.502 -17.802,-23.791 C 133.791,-151.592 50.313,-93.356 0,0"
         style="fill:#3bb27a;fill-opacity:1;fill-rule:nonzero;stroke:none"
         id="path24"
         inkscape:connector-curvature="0" />
    </g>
    <g
       id="g26"
       transform="matrix(0.13667333,0,0,-0.13667333,159.38115,90.341985)">
      <path
         d="m 0,0 c 0.857,7.356 -3.549,14.291 -10.542,16.73 -54.499,19.009 -110.533,28.227 -165.875,28.227 -145.54,0 -286.307,-63.746 -381.854,-180.807 -6.409,-7.821 -18.311,-23.821 -18.311,-23.821 -17.737,-23.185 -39.444,-53.789 -61.458,-91.109 0.157,0.357 0.314,0.716 0.467,1.075 -0.191,-0.415 -0.384,-0.838 -0.579,-1.264 -46.899,-74.892 -107.425,-197.993 -112,-354.422 -9.591,-327.917 312.704,-615.215 313.999,-615.215 0.001,0 0.002,0 0.003,10e-4 0.123,0.089 -10.343,8.042 -45.254,63.666 -106.6,169.842 -267.538,426.262 -182.174,664.105 26.196,72.987 67,120.226 94.837,152.523 117.851,136.744 267.633,181.112 332.784,196.145 -41.655,-14.662 -88.292,-35.449 -136.3,-65.364 -141.584,-88.222 -220.147,-209.116 -260.543,-287.268 -4.807,-9.301 0.516,-20.642 10.76,-22.798 26.562,-5.591 59.957,-10.332 98.121,-10.332 25.75,0 53.665,2.157 83.127,7.669 168.319,31.488 265.505,149.729 304.327,196.961 C -34.178,-200.851 -7.839,-67.24 0,0"
         style="fill:#3bb27a;fill-opacity:1;fill-rule:nonzero;stroke:none"
         id="path28"
         inkscape:connector-curvature="0" />
    </g>
    <g
       id="g30"
       transform="matrix(0.13667333,0,0,-0.13667333,191.98656,88.13305)">
      <path
         d="m 0,0 c -21.11,56.906 -47.975,101.705 -80.599,134.323 -32.618,32.623 -72.92,58.528 -120.89,77.72 -47.976,19.19 -94.032,31.961 -138.167,38.376 -44.137,6.389 -93.729,9.599 -148.716,9.599 h -475.387 c -8.762,0 -15.864,-7.102 -15.864,-15.864 v -531.491 c 0,-16.522 22.097,-22.002 29.84,-7.406 9.487,17.883 19.728,35.626 30.723,53.218 19.365,32.814 41.11,65.029 64.608,95.754 0.887,1.203 12.403,16.657 19.365,25.14 103.14,126.375 256.294,198.907 420.106,198.907 66.603,0 132.276,-12.013 195.184,-35.709 l 24.1,-9.077 c 6.71,-2.527 10.89,-9.241 10.198,-16.378 l -2.486,-25.632 c -9.217,-94.835 -42.515,-235.027 -148.814,-364.36 -40.348,-49.083 -147.472,-179.386 -333.457,-214.182 -30.21,-5.647 -61.243,-8.51 -92.232,-8.51 -30.362,0 -60.991,2.726 -91.452,8.132 -9.247,1.64 -17.818,-5.12 -18.388,-14.493 -12.994,-213.57 95.791,-379.472 174.138,-509.278 8.299,-13.752 29.435,-7.857 29.435,8.205 l -10e-4,364.887 c 0,21.35 17.309,38.659 38.659,38.659 h 141.725 c 70.339,0 132.706,5.754 187.099,17.271 54.357,11.513 108.417,32.293 162.146,62.362 53.734,30.048 95.62,77.389 125.695,142.008 30.041,64.585 45.096,144.218 45.096,238.907 v 38.377 C 31.664,-123.776 21.105,-56.939 0,0"
         style="fill:#272629;fill-opacity:1;fill-rule:nonzero;stroke:none"
         id="path32"
         inkscape:connector-curvature="0" />
    </g>
    <g
       id="g34"
       transform="matrix(0.13667333,0,0,-0.13667333,58.098207,220.18285)">
      <path
         d="m 0,0 v -254.733 c 0,-8.761 7.103,-15.864 15.864,-15.864 l 182.609,-0.001 c 13.539,0 20.852,15.865 12.062,26.161 C 170.423,-197.452 86.269,-94.157 29.704,7.729 21.768,22.023 0,16.35 0,0"
         style="fill:#272629;fill-opacity:1;fill-rule:nonzero;stroke:none"
         id="path36"
         inkscape:connector-curvature="0" />
    </g>
  </g>
</svg>
